<svg width="172" height="45" viewBox="0 0 172 45" fill="none" xmlns="http://www.w3.org/2000/svg">
<path fill-rule="evenodd" clip-rule="evenodd" d="M19.8157 41.2165H2.37788C1.06461 41.2165 0 40.1519 0 38.8386V21.4008C0 20.0876 1.06461 19.0229 2.37788 19.0229H7.92627C12.3038 19.0229 15.8525 15.4742 15.8525 11.0967V5.54829C15.8525 4.23502 16.9171 3.17041 18.2304 3.17041H35.6682C36.9815 3.17041 38.0461 4.23502 38.0461 5.54829V22.9861C38.0461 24.2993 36.9815 25.364 35.6682 25.364H30.1198C25.7423 25.364 22.1935 28.9127 22.1935 33.2902V38.8386C22.1935 40.1519 21.1289 41.2165 19.8157 41.2165ZM15.0597 34.0829H7.13348V25.8924C15.0597 25.8924 23.1445 17.7019 23.1445 9.51145H31.0708V17.7019C23.1445 17.7019 15.0597 25.8924 15.0597 34.0829Z" fill="url(#paint0_linear_413_198)"/>
<path d="M0 21.3215V38.8381C0 40.1514 1.06461 41.216 2.37788 41.216L19.8157 41.216C21.1289 41.216 22.2803 40.1518 22.2728 38.8386C22.2548 35.6886 22.1472 33.3468 22.4313 31.6252C23.6995 27.4243 25.1085 26.7207 30.1198 25.3635C22.1935 25.3635 15.2184 25.3635 15.0599 34.0824H7.13364V25.9188C15.8525 25.7602 15.8525 19.0225 15.8525 11.0962C14.4953 16.1075 13.871 17.3584 9.67005 18.6266C7.94711 18.911 5.55186 18.9427 2.37822 18.9445C1.06495 18.9452 0 20.0083 0 21.3215Z" fill="url(#paint1_linear_413_198)"/>
<path d="M58.7974 31.3579L49.2764 14.1135H54.0702L58.8307 23.235L63.5246 14.1135H68.2851L58.7974 31.3579Z" fill="white"/>
<path d="M69.6186 8.65386C69.6186 7.94367 69.8849 7.33334 70.4175 6.82289C70.9724 6.29025 71.6493 6.02393 72.4483 6.02393C72.8255 6.02393 73.1806 6.1016 73.5135 6.25696C73.8686 6.39012 74.1683 6.57876 74.4124 6.82289C74.6787 7.04483 74.8784 7.32225 75.0116 7.65515C75.167 7.96586 75.2446 8.29877 75.2446 8.65386C75.2446 9.43064 74.9783 10.0742 74.4457 10.5847C73.9352 11.073 73.2694 11.3171 72.4483 11.3171C71.6493 11.3171 70.9724 11.0619 70.4175 10.5514C69.8849 10.0188 69.6186 9.38625 69.6186 8.65386ZM74.6454 31.025H70.4508V14.1135H74.6454V31.025Z" fill="white"/>
<path d="M95.4573 14.1135V31.025H91.2627V29.3937C90.5969 30.0152 89.8202 30.5034 88.9324 30.8585C88.0669 31.1914 87.1126 31.3579 86.0695 31.3579C84.8044 31.3579 83.6504 31.1359 82.6073 30.6921C81.5642 30.2482 80.6653 29.6379 79.9107 28.8611C79.1784 28.0843 78.6013 27.1633 78.1797 26.098C77.758 25.0105 77.5471 23.8232 77.5471 22.5359C77.5471 21.2709 77.758 20.1057 78.1797 19.0404C78.6013 17.9752 79.1895 17.0541 79.944 16.2773C80.6986 15.5006 81.5975 14.8902 82.6406 14.4464C83.6837 14.0025 84.8266 13.7806 86.0695 13.7806C87.1126 13.7806 88.0669 13.9581 88.9324 14.3132C89.8202 14.6461 90.5969 15.1122 91.2627 15.7114V14.1135H95.4573ZM86.5688 17.3426C85.1706 17.3426 84.0387 17.8198 83.1732 18.7741C82.3298 19.7284 81.9082 20.9935 81.9082 22.5692C81.9082 23.346 82.0191 24.0562 82.2411 24.6998C82.463 25.3434 82.7737 25.8983 83.1732 26.3643C83.5949 26.8082 84.0942 27.1633 84.6713 27.4296C85.2483 27.6737 85.8808 27.7958 86.5688 27.7958C87.279 27.7958 87.9115 27.6737 88.4664 27.4296C89.0434 27.1633 89.5316 26.8082 89.9311 26.3643C90.3528 25.8983 90.6746 25.3434 90.8966 24.6998C91.1185 24.0562 91.2295 23.346 91.2295 22.5692C91.2295 21.7924 91.1185 21.0823 90.8966 20.4386C90.6746 19.795 90.3528 19.2513 89.9311 18.8074C89.5316 18.3413 89.0434 17.9862 88.4664 17.7421C87.9115 17.4758 87.279 17.3426 86.5688 17.3426Z" fill="white"/>
<path d="M111.834 19.0072C111.212 18.4745 110.391 18.0528 109.37 17.7421C108.349 17.4314 107.306 17.2761 106.241 17.2761C105.309 17.2761 104.565 17.4203 104.011 17.7088C103.478 17.9752 103.212 18.3524 103.212 18.8407C103.212 19.2624 103.456 19.6175 103.944 19.906C104.432 20.1945 105.043 20.4608 105.775 20.705C106.53 20.9491 107.34 21.2154 108.205 21.5039C109.071 21.7702 109.87 22.1142 110.602 22.5359C111.357 22.9354 111.978 23.4459 112.466 24.0673C112.955 24.6887 113.199 25.4655 113.199 26.3976C113.199 27.1522 113.021 27.8402 112.666 28.4616C112.311 29.0608 111.801 29.5824 111.135 30.0262C110.491 30.4479 109.714 30.7808 108.804 31.025C107.894 31.2469 106.874 31.3579 105.742 31.3579C104.388 31.3579 103.045 31.2025 101.714 30.8918C100.404 30.5589 99.3278 30.1261 98.4844 29.5935L99.5164 25.9981C100.382 26.5752 101.392 27.0412 102.546 27.3963C103.7 27.7292 104.787 27.8957 105.808 27.8957C106.74 27.8957 107.473 27.7625 108.005 27.4962C108.56 27.2299 108.838 26.8748 108.838 26.4309C108.838 26.0092 108.594 25.6763 108.105 25.4322C107.617 25.1659 106.996 24.9217 106.241 24.6998C105.509 24.4779 104.71 24.2448 103.844 24.0007C103.001 23.7344 102.202 23.4015 101.447 23.002C100.715 22.5803 100.105 22.0699 99.6163 21.4706C99.128 20.8492 98.8839 20.0724 98.8839 19.1403C98.8839 18.3192 99.0503 17.5868 99.3832 16.9432C99.7383 16.2773 100.238 15.7114 100.881 15.2453C101.525 14.7793 102.302 14.4242 103.212 14.1801C104.122 13.9137 105.142 13.7806 106.274 13.7806C107.539 13.7806 108.782 13.9581 110.003 14.3132C111.224 14.6461 112.244 15.0789 113.066 15.6115L111.834 19.0072Z" fill="#177FEE"/>
<path d="M128.741 14.1135H133.302L122.549 38.4154H118.188L121.517 30.8585L114.427 14.1135H119.054L123.748 25.7318L128.741 14.1135Z" fill="#177FEE"/>
<path d="M139.601 31.025H135.406V14.1135H139.601V15.9112C140.355 15.2453 141.221 14.7238 142.197 14.3465C143.196 13.9692 144.261 13.7806 145.393 13.7806C146.481 13.7806 147.468 13.9581 148.356 14.3132C149.266 14.6461 150.032 15.1344 150.653 15.778C151.297 16.3994 151.785 17.154 152.118 18.0417C152.473 18.9073 152.65 19.8838 152.65 20.9713V31.025H148.456V21.2709C148.456 20.0502 148.112 19.0959 147.424 18.4079C146.736 17.6977 145.793 17.3426 144.594 17.3426C143.063 17.3426 141.842 17.8531 140.932 18.874C140.044 19.8727 139.601 21.2265 139.601 22.9354V31.025Z" fill="#177FEE"/>
<path d="M164.862 17.3426C163.353 17.3426 162.132 17.8198 161.2 18.7741C160.29 19.7284 159.835 20.9935 159.835 22.5692C159.835 23.3238 159.957 24.0229 160.201 24.6665C160.445 25.3101 160.789 25.865 161.233 26.331C161.677 26.7749 162.21 27.13 162.831 27.3963C163.475 27.6404 164.174 27.7625 164.928 27.7625C165.749 27.7625 166.548 27.6183 167.325 27.3297C168.102 27.0412 168.746 26.6417 169.256 26.1313L170.954 28.961C170.11 29.6712 169.123 30.2482 167.991 30.6921C166.881 31.1359 165.794 31.3579 164.729 31.3579C163.375 31.3579 162.132 31.1359 161 30.6921C159.868 30.2482 158.892 29.6379 158.07 28.8611C157.249 28.0843 156.606 27.1633 156.14 26.098C155.674 25.0105 155.441 23.8343 155.441 22.5692C155.441 21.3042 155.674 20.139 156.14 19.0737C156.606 17.9862 157.249 17.0541 158.07 16.2773C158.892 15.5006 159.868 14.8902 161 14.4464C162.132 14.0025 163.364 13.7806 164.695 13.7806C165.783 13.7806 166.804 13.9359 167.758 14.2466C168.734 14.5573 169.611 15.0012 170.388 15.5782L169.056 19.1403C168.568 18.6077 167.958 18.1749 167.225 17.842C166.493 17.5091 165.705 17.3426 164.862 17.3426Z" fill="#177FEE"/>
<defs>
<linearGradient id="paint0_linear_413_198" x1="7.13364" y1="34.2414" x2="23.9373" y2="15.9317" gradientUnits="userSpaceOnUse">
<stop stop-color="#177FEE"/>
<stop offset="1" stop-color="#F7FCFF"/>
</linearGradient>
<linearGradient id="paint1_linear_413_198" x1="15.0599" y1="26.9492" x2="35.1134" y2="6.26164" gradientUnits="userSpaceOnUse">
<stop stop-color="#177FEE"/>
<stop offset="1" stop-color="#F7FCFF"/>
</linearGradient>
</defs>
</svg>
